<?xml version="1.0" encoding="UTF-8" standalone="no"?>
<!-- Created with Inkscape (http://www.inkscape.org/) -->

<svg
   width="285.75mm"
   height="129.17464mm"
   viewBox="0 0 285.75 129.17464"
   version="1.1"
   id="svg185"
   xml:space="preserve"
   xmlns="http://www.w3.org/2000/svg"
   xmlns:svg="http://www.w3.org/2000/svg"><defs
     id="defs182"><clipPath
       clipPathUnits="userSpaceOnUse"
       id="clipPath1136"><path
         style="fill:none;stroke:#000000;stroke-width:0.799999;stroke-linecap:round;stroke-dasharray:none;paint-order:stroke fill markers"
         d="m -336.73381,123.88499 h 110.5671 v 123.91522 c 0,0 -112.84341,0.47474 -112.34684,1.33481 0.49654,0.86007 1.77974,-125.25003 1.77974,-125.25003 z"
         id="path1138" /></clipPath><filter
       style="color-interpolation-filters:sRGB"
       id="filter1042"
       x="-0.0082943065"
       y="-0.019772181"
       width="1.0165886"
       height="1.0395444"><feGaussianBlur
         stdDeviation="0.97713572"
         id="feGaussianBlur1044" /></filter></defs><g
     id="layer1"
     transform="translate(674.62415,-343.96735)"><g
       id="g486"
       transform="matrix(0.95326441,0,0,0.95326441,-359.59809,545.43762)"
       style="fill:#000000;filter:url(#filter1042);opacity:0.2872807"><text
         xml:space="preserve"
         style="font-size:23.6101px;font-family:'Comic Sans MS';-inkscape-font-specification:'Comic Sans MS, Normal';text-align:center;letter-spacing:3.29406px;text-anchor:middle;fill:#000000;fill-opacity:0.996078;stroke:none;stroke-width:0.133853;stroke-linecap:round;stroke-dasharray:none;paint-order:stroke fill markers"
         x="-118.91399"
         y="-127.54708"
         id="text468"
         transform="scale(1.026008,0.97465127)"><tspan
           id="tspan466"
           style="font-style:normal;font-variant:normal;font-weight:bold;font-stretch:normal;font-size:23.6101px;font-family:'TT Rationalist Trl';-inkscape-font-specification:'TT Rationalist Trl, Bold';font-variant-ligatures:normal;font-variant-caps:normal;font-variant-numeric:normal;font-variant-east-asian:normal;fill:#000000;fill-opacity:0.996078;stroke:none;stroke-width:0.133853"
           x="-117.26696"
           y="-127.54708">FINANCIAL</tspan></text><text
         xml:space="preserve"
         style="font-size:23.6101px;font-family:'Comic Sans MS';-inkscape-font-specification:'Comic Sans MS, Normal';text-align:center;letter-spacing:2.11667px;text-anchor:middle;fill:#000000;fill-opacity:0.996078;stroke:none;stroke-width:0.133853;stroke-linecap:round;stroke-dasharray:none;paint-order:stroke fill markers"
         x="-143.16032"
         y="-99.740761"
         id="text472"
         transform="scale(1.026008,0.97465127)"><tspan
           id="tspan470"
           style="font-style:normal;font-variant:normal;font-weight:bold;font-stretch:normal;font-size:23.6101px;font-family:'TT Rationalist Trl';-inkscape-font-specification:'TT Rationalist Trl, Bold';font-variant-ligatures:normal;font-variant-caps:normal;font-variant-numeric:normal;font-variant-east-asian:normal;fill:#000000;fill-opacity:0.996078;stroke:none;stroke-width:0.133853"
           x="-142.10199"
           y="-99.740761">AGENCY</tspan></text><text
         xml:space="preserve"
         style="font-size:45.3781px;font-family:'Comic Sans MS';-inkscape-font-specification:'Comic Sans MS, Normal';text-align:center;letter-spacing:2.85015px;text-anchor:middle;fill:#000000;stroke:none;stroke-width:0.257263;stroke-linecap:round;stroke-dasharray:none;paint-order:stroke fill markers"
         x="-118.55187"
         y="-162.86858"
         id="text476"
         transform="scale(1.026008,0.97465126)"><tspan
           id="tspan474"
           style="font-style:normal;font-variant:normal;font-weight:bold;font-stretch:normal;font-size:45.3781px;font-family:'TT Rationalist Trl';-inkscape-font-specification:'TT Rationalist Trl, Bold';font-variant-ligatures:normal;font-variant-caps:normal;font-variant-numeric:normal;font-variant-east-asian:normal;fill:#000000;stroke:none;stroke-width:0.257264"
           x="-117.1268"
           y="-162.86858">REYES</tspan></text><g
         id="g484"
         transform="translate(349.2267,-369.4901)"
         style="fill:#000000"><path
           style="fill:#000000;fill-opacity:1;stroke:none;stroke-width:0.290654"
           d="m -641.99308,184.37034 c -1.26052,0.76272 -0.93473,2.54719 -0.77489,3.75053 0.37313,2.81464 0.62909,5.83542 0.70389,8.67376 0.0343,1.29413 -0.11629,2.99419 1.21201,3.75054 2.00299,1.1403 6.4452,0.29722 8.72694,0.29722 h 22.49885 c 2.18151,0 7.82084,0.99314 9.51555,-0.46347 1.39552,-1.19959 0.89236,-4.26721 1.08667,-5.89729 0.24778,-2.07795 1.70816,-8.38839 0.0178,-9.90485 -0.96774,-0.86825 -3.56475,-0.65025 -4.77473,-0.46087 -3.16152,0.49498 -1.85396,5.63795 -3.05663,7.73207 -1.0478,1.82439 -5.34157,1.42887 -7.1713,1.14523 -3.77221,-0.58461 -1.45804,-5.76545 -2.91871,-8.00993 -0.91486,-1.40572 -3.5218,-0.92895 -4.97078,-0.90901 -5.63786,0.0778 -0.58614,8.04087 -5.26064,8.89581 -1.72569,0.31544 -5.91076,0.64475 -7.08801,-0.86738 -1.50422,-1.9328 -0.0213,-6.80398 -2.58503,-7.85524 -0.84649,-0.34695 -1.99363,-0.17607 -2.89008,-0.17435 -0.72931,10e-4 -1.61904,-0.0971 -2.27094,0.29723"
           id="path478" /><path
           style="fill:#000000;fill-opacity:1;stroke:none;stroke-width:0.290654"
           d="m -634.22794,219.03978 h 17.82376 c 2.2905,0 5.79273,-0.64245 7.88804,0.38106 3.25445,1.58932 2.0477,7.35245 2.04653,10.31657 -5.9e-4,1.51704 0.10171,3.08873 -1.47383,3.88208 -2.31942,1.16836 -6.20939,0.4548 -8.75293,0.4548 h -20.74569 c -2.75771,0 -8.76491,-1.14522 -10.51633,1.47598 -0.98906,1.48003 -0.58701,3.77598 -0.58701,5.46302 v 12.14326 9.25202 c 0,1.46817 -0.15135,3.09162 0.9917,4.22296 2.03162,2.01 11.09925,1.83623 12.54034,-0.78035 2.67095,-4.85037 -3.58842,-17.752 5.16832,-18.17644 5.23287,-0.25356 10.5388,-0.0116 15.77841,-0.0116 2.08625,0 4.73089,-0.35765 6.36571,1.22242 2.62448,2.53621 1.23014,9.8479 1.23131,13.23385 8.7e-4,2.02821 0.0268,4.49416 2.34192,5.29012 1.47675,0.50771 3.41866,0.20326 4.9629,0.20326 1.38937,0 3.04173,0.23274 4.38172,-0.1888 2.84363,-0.89427 2.33872,-4.13999 2.33872,-6.46109 V 241.30239 215.2811 c 0,-2.38818 0.95839,-7.36576 -0.9432,-9.13809 -1.48902,-1.38752 -3.90633,-0.9813 -5.77724,-0.9813 h -14.02526 -25.42079 c -2.50058,0 -7.36677,-0.9226 -9.15936,1.22156 -2.02461,2.42114 -0.7752,9.06089 -0.7752,12.07821 0,2.30983 -0.83479,6.60623 0.30038,8.6567 1.27046,2.29567 7.91726,1.17473 10.21858,1.17357 1.04955,-5.8e-4 2.2864,0.14745 3.0873,-0.6702 1.61231,-1.64541 0.7112,-6.43072 0.7112,-8.58182"
           id="path480" /><path
           style="fill:#000000;fill-opacity:1;stroke:none;stroke-width:0.290654"
           d="m -664.832,166.87884 c -2.73872,0.62211 -5.06049,2.91945 -5.68929,5.62947 -1.40252,6.04671 -0.15457,13.73982 -0.15457,19.94965 v 63.02932 17.0584 c 0,2.75449 -0.46633,5.88282 0.93064,8.38434 3.52559,6.31305 16.26463,3.75892 22.4448,3.75892 h 49.08842 14.90184 c 2.39103,0 5.2846,0.43224 7.59703,-0.22813 2.56428,-0.73263 4.51466,-3.01008 5.10489,-5.55438 1.40253,-6.04677 0.15458,-13.74011 0.15458,-19.94964 v -64.47496 -16.48014 c 0,-2.75114 0.35823,-5.72428 -1.3552,-8.09527 -2.31066,-3.19727 -5.59052,-3.18062 -9.16375,-3.18062 h -13.44088 -47.62745 -15.19404 c -2.42082,0 -5.22967,-0.38467 -7.59702,0.15304 m 6.13606,7.75174 c 6.07702,-1.1615 13.38186,-0.0983 19.57692,-0.0983 h 40.61483 12.85649 c 2.53186,0 4.88313,-0.0255 6.43701,2.31722 1.31516,1.98254 0.86782,4.67678 0.86782,6.93479 v 14.45627 56.09032 c 0,5.91347 0.46371,12.03368 -0.0272,17.92576 -0.17093,2.05106 -1.68625,4.03792 -3.77134,4.51209 -5.90872,1.34327 -13.50574,0.11392 -19.57693,0.11392 h -41.19921 -12.5643 c -2.69432,0 -5.17094,0.0355 -6.69414,-2.60242 -1.07615,-1.86312 -0.61069,-4.58437 -0.61069,-6.64959 V 252.59608 197.084 c 0,-5.89612 -0.9616,-12.7059 0.0962,-18.50401 0.35414,-1.93929 2.04126,-3.57602 3.99457,-3.94937"
           id="path482" /></g></g><g
       id="g464"
       transform="matrix(0.95326441,0,0,0.95326441,-359.59809,545.43762)"><text
         xml:space="preserve"
         style="font-size:23.6101px;font-family:'Comic Sans MS';-inkscape-font-specification:'Comic Sans MS, Normal';text-align:center;letter-spacing:3.29406px;text-anchor:middle;fill:#274471;fill-opacity:0.996078;stroke:none;stroke-width:0.133853;stroke-linecap:round;stroke-dasharray:none;paint-order:stroke fill markers"
         x="-118.91399"
         y="-127.54708"
         id="text446"
         transform="scale(1.026008,0.97465127)"><tspan
           id="tspan444"
           style="font-style:normal;font-variant:normal;font-weight:bold;font-stretch:normal;font-size:23.6101px;font-family:'TT Rationalist Trl';-inkscape-font-specification:'TT Rationalist Trl, Bold';font-variant-ligatures:normal;font-variant-caps:normal;font-variant-numeric:normal;font-variant-east-asian:normal;fill:#274471;fill-opacity:0.996078;stroke:none;stroke-width:0.133853"
           x="-117.26696"
           y="-127.54708">FINANCIAL</tspan></text><text
         xml:space="preserve"
         style="font-size:23.6101px;font-family:'Comic Sans MS';-inkscape-font-specification:'Comic Sans MS, Normal';text-align:center;letter-spacing:2.11667px;text-anchor:middle;fill:#274471;fill-opacity:0.996078;stroke:none;stroke-width:0.133853;stroke-linecap:round;stroke-dasharray:none;paint-order:stroke fill markers"
         x="-143.16032"
         y="-99.740761"
         id="text450"
         transform="scale(1.026008,0.97465127)"><tspan
           id="tspan448"
           style="font-style:normal;font-variant:normal;font-weight:bold;font-stretch:normal;font-size:23.6101px;font-family:'TT Rationalist Trl';-inkscape-font-specification:'TT Rationalist Trl, Bold';font-variant-ligatures:normal;font-variant-caps:normal;font-variant-numeric:normal;font-variant-east-asian:normal;fill:#274471;fill-opacity:0.996078;stroke:none;stroke-width:0.133853"
           x="-142.10199"
           y="-99.740761">AGENCY</tspan></text><text
         xml:space="preserve"
         style="font-size:45.3781px;font-family:'Comic Sans MS';-inkscape-font-specification:'Comic Sans MS, Normal';text-align:center;letter-spacing:2.85015px;text-anchor:middle;fill:#ffffff;stroke:none;stroke-width:0.257263;stroke-linecap:round;stroke-dasharray:none;paint-order:stroke fill markers"
         x="-118.55187"
         y="-162.86858"
         id="text454"
         transform="scale(1.026008,0.97465126)"><tspan
           id="tspan452"
           style="font-style:normal;font-variant:normal;font-weight:bold;font-stretch:normal;font-size:45.3781px;font-family:'TT Rationalist Trl';-inkscape-font-specification:'TT Rationalist Trl, Bold';font-variant-ligatures:normal;font-variant-caps:normal;font-variant-numeric:normal;font-variant-east-asian:normal;fill:#ffffff;stroke:none;stroke-width:0.257264"
           x="-117.1268"
           y="-162.86858">REYES</tspan></text><g
         id="g462"
         transform="translate(349.2267,-369.4901)"><path
           style="fill:#104998;fill-opacity:1;stroke:none;stroke-width:0.290654"
           d="m -641.99308,184.37034 c -1.26052,0.76272 -0.93473,2.54719 -0.77489,3.75053 0.37313,2.81464 0.62909,5.83542 0.70389,8.67376 0.0343,1.29413 -0.11629,2.99419 1.21201,3.75054 2.00299,1.1403 6.4452,0.29722 8.72694,0.29722 h 22.49885 c 2.18151,0 7.82084,0.99314 9.51555,-0.46347 1.39552,-1.19959 0.89236,-4.26721 1.08667,-5.89729 0.24778,-2.07795 1.70816,-8.38839 0.0178,-9.90485 -0.96774,-0.86825 -3.56475,-0.65025 -4.77473,-0.46087 -3.16152,0.49498 -1.85396,5.63795 -3.05663,7.73207 -1.0478,1.82439 -5.34157,1.42887 -7.1713,1.14523 -3.77221,-0.58461 -1.45804,-5.76545 -2.91871,-8.00993 -0.91486,-1.40572 -3.5218,-0.92895 -4.97078,-0.90901 -5.63786,0.0778 -0.58614,8.04087 -5.26064,8.89581 -1.72569,0.31544 -5.91076,0.64475 -7.08801,-0.86738 -1.50422,-1.9328 -0.0213,-6.80398 -2.58503,-7.85524 -0.84649,-0.34695 -1.99363,-0.17607 -2.89008,-0.17435 -0.72931,10e-4 -1.61904,-0.0971 -2.27094,0.29723"
           id="path456" /><path
           style="fill:#4d4d4d;fill-opacity:1;stroke:none;stroke-width:0.290654"
           d="m -634.22794,219.03978 h 17.82376 c 2.2905,0 5.79273,-0.64245 7.88804,0.38106 3.25445,1.58932 2.0477,7.35245 2.04653,10.31657 -5.9e-4,1.51704 0.10171,3.08873 -1.47383,3.88208 -2.31942,1.16836 -6.20939,0.4548 -8.75293,0.4548 h -20.74569 c -2.75771,0 -8.76491,-1.14522 -10.51633,1.47598 -0.98906,1.48003 -0.58701,3.77598 -0.58701,5.46302 v 12.14326 9.25202 c 0,1.46817 -0.15135,3.09162 0.9917,4.22296 2.03162,2.01 11.09925,1.83623 12.54034,-0.78035 2.67095,-4.85037 -3.58842,-17.752 5.16832,-18.17644 5.23287,-0.25356 10.5388,-0.0116 15.77841,-0.0116 2.08625,0 4.73089,-0.35765 6.36571,1.22242 2.62448,2.53621 1.23014,9.8479 1.23131,13.23385 8.7e-4,2.02821 0.0268,4.49416 2.34192,5.29012 1.47675,0.50771 3.41866,0.20326 4.9629,0.20326 1.38937,0 3.04173,0.23274 4.38172,-0.1888 2.84363,-0.89427 2.33872,-4.13999 2.33872,-6.46109 V 241.30239 215.2811 c 0,-2.38818 0.95839,-7.36576 -0.9432,-9.13809 -1.48902,-1.38752 -3.90633,-0.9813 -5.77724,-0.9813 h -14.02526 -25.42079 c -2.50058,0 -7.36677,-0.9226 -9.15936,1.22156 -2.02461,2.42114 -0.7752,9.06089 -0.7752,12.07821 0,2.30983 -0.83479,6.60623 0.30038,8.6567 1.27046,2.29567 7.91726,1.17473 10.21858,1.17357 1.04955,-5.8e-4 2.2864,0.14745 3.0873,-0.6702 1.61231,-1.64541 0.7112,-6.43072 0.7112,-8.58182"
           id="path458" /><path
           style="fill:#104998;fill-opacity:1;stroke:none;stroke-width:0.290654"
           d="m -664.832,166.87884 c -2.73872,0.62211 -5.06049,2.91945 -5.68929,5.62947 -1.40252,6.04671 -0.15457,13.73982 -0.15457,19.94965 v 63.02932 17.0584 c 0,2.75449 -0.46633,5.88282 0.93064,8.38434 3.52559,6.31305 16.26463,3.75892 22.4448,3.75892 h 49.08842 14.90184 c 2.39103,0 5.2846,0.43224 7.59703,-0.22813 2.56428,-0.73263 4.51466,-3.01008 5.10489,-5.55438 1.40253,-6.04677 0.15458,-13.74011 0.15458,-19.94964 v -64.47496 -16.48014 c 0,-2.75114 0.35823,-5.72428 -1.3552,-8.09527 -2.31066,-3.19727 -5.59052,-3.18062 -9.16375,-3.18062 h -13.44088 -47.62745 -15.19404 c -2.42082,0 -5.22967,-0.38467 -7.59702,0.15304 m 6.13606,7.75174 c 6.07702,-1.1615 13.38186,-0.0983 19.57692,-0.0983 h 40.61483 12.85649 c 2.53186,0 4.88313,-0.0255 6.43701,2.31722 1.31516,1.98254 0.86782,4.67678 0.86782,6.93479 v 14.45627 56.09032 c 0,5.91347 0.46371,12.03368 -0.0272,17.92576 -0.17093,2.05106 -1.68625,4.03792 -3.77134,4.51209 -5.90872,1.34327 -13.50574,0.11392 -19.57693,0.11392 h -41.19921 -12.5643 c -2.69432,0 -5.17094,0.0355 -6.69414,-2.60242 -1.07615,-1.86312 -0.61069,-4.58437 -0.61069,-6.64959 V 252.59608 197.084 c 0,-5.89612 -0.9616,-12.7059 0.0962,-18.50401 0.35414,-1.93929 2.04126,-3.57602 3.99457,-3.94937"
           id="path460" /></g></g></g></svg>
