<?xml version="1.0" encoding="UTF-8" standalone="no"?>
<!-- Created with Inkscape (http://www.inkscape.org/) -->

<svg
   width="285.75mm"
   height="129.17464mm"
   viewBox="0 0 285.75 129.17464"
   version="1.1"
   id="svg185"
   xml:space="preserve"
   sodipodi:docname="RFA.svg"
   inkscape:version="1.2.2 (732a01da63, 2022-12-09)"
   xmlns:inkscape="http://www.inkscape.org/namespaces/inkscape"
   xmlns:sodipodi="http://sodipodi.sourceforge.net/DTD/sodipodi-0.dtd"
   xmlns="http://www.w3.org/2000/svg"
   xmlns:svg="http://www.w3.org/2000/svg"><sodipodi:namedview
     id="namedview31"
     pagecolor="#505050"
     bordercolor="#eeeeee"
     borderopacity="1"
     inkscape:showpageshadow="0"
     inkscape:pageopacity="0"
     inkscape:pagecheckerboard="0"
     inkscape:deskcolor="#505050"
     inkscape:document-units="mm"
     showgrid="false"
     inkscape:zoom="0.48338953"
     inkscape:cx="317.54929"
     inkscape:cy="244.10955"
     inkscape:window-width="1920"
     inkscape:window-height="1009"
     inkscape:window-x="1912"
     inkscape:window-y="-8"
     inkscape:window-maximized="1"
     inkscape:current-layer="svg185" /><defs
     id="defs182"><clipPath
       clipPathUnits="userSpaceOnUse"
       id="clipPath1136"><path
         style="fill:none;stroke:#000000;stroke-width:0.799999;stroke-linecap:round;stroke-dasharray:none;paint-order:stroke fill markers"
         d="m -336.73381,123.88499 h 110.5671 v 123.91522 c 0,0 -112.84341,0.47474 -112.34684,1.33481 0.49654,0.86007 1.77974,-125.25003 1.77974,-125.25003 z"
         id="path1138" /></clipPath><filter
       style="color-interpolation-filters:sRGB"
       id="filter1042"
       x="-0.0082481133"
       y="-0.019772181"
       width="1.0164962"
       height="1.0395444"><feGaussianBlur
         stdDeviation="0.97713572"
         id="feGaussianBlur1044" /></filter></defs><g
     id="g486"
     transform="matrix(0.95326441,0,0,0.95326441,315.02606,201.47027)"
     style="opacity:0.287281;fill:#000000;filter:url(#filter1042)"><text
       xml:space="preserve"
       style="font-size:23.6101px;font-family:'Comic Sans MS';-inkscape-font-specification:'Comic Sans MS, Normal';text-align:center;letter-spacing:3.29406px;text-anchor:middle;fill:#000000;fill-opacity:0.996078;stroke:none;stroke-width:0.133853;stroke-linecap:round;stroke-dasharray:none;paint-order:stroke fill markers"
       x="-118.91399"
       y="-127.54708"
       id="text468"
       transform="scale(1.026008,0.97465127)"><tspan
         id="tspan466"
         style="font-style:normal;font-variant:normal;font-weight:bold;font-stretch:normal;font-size:23.6101px;font-family:'TT Rationalist Trl';-inkscape-font-specification:'TT Rationalist Trl, Bold';font-variant-ligatures:normal;font-variant-caps:normal;font-variant-numeric:normal;font-variant-east-asian:normal;fill:#000000;fill-opacity:0.996078;stroke:none;stroke-width:0.133853"
         x="-117.26696"
         y="-127.54708">FINANCIAL</tspan></text><text
       xml:space="preserve"
       style="font-size:23.6101px;font-family:'Comic Sans MS';-inkscape-font-specification:'Comic Sans MS, Normal';text-align:center;letter-spacing:2.11667px;text-anchor:middle;fill:#000000;fill-opacity:0.996078;stroke:none;stroke-width:0.133853;stroke-linecap:round;stroke-dasharray:none;paint-order:stroke fill markers"
       x="-143.16032"
       y="-99.740761"
       id="text472"
       transform="scale(1.026008,0.97465127)"><tspan
         id="tspan470"
         style="font-style:normal;font-variant:normal;font-weight:bold;font-stretch:normal;font-size:23.6101px;font-family:'TT Rationalist Trl';-inkscape-font-specification:'TT Rationalist Trl, Bold';font-variant-ligatures:normal;font-variant-caps:normal;font-variant-numeric:normal;font-variant-east-asian:normal;fill:#000000;fill-opacity:0.996078;stroke:none;stroke-width:0.133853"
         x="-142.10199"
         y="-99.740761">AGENCY</tspan></text><text
       xml:space="preserve"
       style="font-size:45.3781px;font-family:'Comic Sans MS';-inkscape-font-specification:'Comic Sans MS, Normal';text-align:center;letter-spacing:2.85015px;text-anchor:middle;fill:#000000;stroke:none;stroke-width:0.257263;stroke-linecap:round;stroke-dasharray:none;paint-order:stroke fill markers"
       x="-118.55187"
       y="-162.86858"
       id="text476"
       transform="scale(1.026008,0.97465126)"><tspan
         id="tspan474"
         style="font-style:normal;font-variant:normal;font-weight:bold;font-stretch:normal;font-size:45.3781px;font-family:'TT Rationalist Trl';-inkscape-font-specification:'TT Rationalist Trl, Bold';font-variant-ligatures:normal;font-variant-caps:normal;font-variant-numeric:normal;font-variant-east-asian:normal;fill:#000000;stroke:none;stroke-width:0.257264"
         x="-117.1268"
         y="-162.86858">REYES</tspan></text><g
       id="g484"
       transform="translate(349.2267,-369.4901)"
       style="fill:#000000"><path
         style="fill:#000000;fill-opacity:1;stroke:none;stroke-width:0.290654"
         d="m -641.99308,184.37034 c -1.26052,0.76272 -0.93473,2.54719 -0.77489,3.75053 0.37313,2.81464 0.62909,5.83542 0.70389,8.67376 0.0343,1.29413 -0.11629,2.99419 1.21201,3.75054 2.00299,1.1403 6.4452,0.29722 8.72694,0.29722 h 22.49885 c 2.18151,0 7.82084,0.99314 9.51555,-0.46347 1.39552,-1.19959 0.89236,-4.26721 1.08667,-5.89729 0.24778,-2.07795 1.70816,-8.38839 0.0178,-9.90485 -0.96774,-0.86825 -3.56475,-0.65025 -4.77473,-0.46087 -3.16152,0.49498 -1.85396,5.63795 -3.05663,7.73207 -1.0478,1.82439 -5.34157,1.42887 -7.1713,1.14523 -3.77221,-0.58461 -1.45804,-5.76545 -2.91871,-8.00993 -0.91486,-1.40572 -3.5218,-0.92895 -4.97078,-0.90901 -5.63786,0.0778 -0.58614,8.04087 -5.26064,8.89581 -1.72569,0.31544 -5.91076,0.64475 -7.08801,-0.86738 -1.50422,-1.9328 -0.0213,-6.80398 -2.58503,-7.85524 -0.84649,-0.34695 -1.99363,-0.17607 -2.89008,-0.17435 -0.72931,10e-4 -1.61904,-0.0971 -2.27094,0.29723"
         id="path478" /><path
         style="fill:#000000;fill-opacity:1;stroke:none;stroke-width:0.290654"
         d="m -634.22794,219.03978 h 17.82376 c 2.2905,0 5.79273,-0.64245 7.88804,0.38106 3.25445,1.58932 2.0477,7.35245 2.04653,10.31657 -5.9e-4,1.51704 0.10171,3.08873 -1.47383,3.88208 -2.31942,1.16836 -6.20939,0.4548 -8.75293,0.4548 h -20.74569 c -2.75771,0 -8.76491,-1.14522 -10.51633,1.47598 -0.98906,1.48003 -0.58701,3.77598 -0.58701,5.46302 v 12.14326 9.25202 c 0,1.46817 -0.15135,3.09162 0.9917,4.22296 2.03162,2.01 11.09925,1.83623 12.54034,-0.78035 2.67095,-4.85037 -3.58842,-17.752 5.16832,-18.17644 5.23287,-0.25356 10.5388,-0.0116 15.77841,-0.0116 2.08625,0 4.73089,-0.35765 6.36571,1.22242 2.62448,2.53621 1.23014,9.8479 1.23131,13.23385 8.7e-4,2.02821 0.0268,4.49416 2.34192,5.29012 1.47675,0.50771 3.41866,0.20326 4.9629,0.20326 1.38937,0 3.04173,0.23274 4.38172,-0.1888 2.84363,-0.89427 2.33872,-4.13999 2.33872,-6.46109 V 241.30239 215.2811 c 0,-2.38818 0.95839,-7.36576 -0.9432,-9.13809 -1.48902,-1.38752 -3.90633,-0.9813 -5.77724,-0.9813 h -14.02526 -25.42079 c -2.50058,0 -7.36677,-0.9226 -9.15936,1.22156 -2.02461,2.42114 -0.7752,9.06089 -0.7752,12.07821 0,2.30983 -0.83479,6.60623 0.30038,8.6567 1.27046,2.29567 7.91726,1.17473 10.21858,1.17357 1.04955,-5.8e-4 2.2864,0.14745 3.0873,-0.6702 1.61231,-1.64541 0.7112,-6.43072 0.7112,-8.58182"
         id="path480" /><path
         style="fill:#000000;fill-opacity:1;stroke:none;stroke-width:0.290654"
         d="m -664.832,166.87884 c -2.73872,0.62211 -5.06049,2.91945 -5.68929,5.62947 -1.40252,6.04671 -0.15457,13.73982 -0.15457,19.94965 v 63.02932 17.0584 c 0,2.75449 -0.46633,5.88282 0.93064,8.38434 3.52559,6.31305 16.26463,3.75892 22.4448,3.75892 h 49.08842 14.90184 c 2.39103,0 5.2846,0.43224 7.59703,-0.22813 2.56428,-0.73263 4.51466,-3.01008 5.10489,-5.55438 1.40253,-6.04677 0.15458,-13.74011 0.15458,-19.94964 v -64.47496 -16.48014 c 0,-2.75114 0.35823,-5.72428 -1.3552,-8.09527 -2.31066,-3.19727 -5.59052,-3.18062 -9.16375,-3.18062 h -13.44088 -47.62745 -15.19404 c -2.42082,0 -5.22967,-0.38467 -7.59702,0.15304 m 6.13606,7.75174 c 6.07702,-1.1615 13.38186,-0.0983 19.57692,-0.0983 h 40.61483 12.85649 c 2.53186,0 4.88313,-0.0255 6.43701,2.31722 1.31516,1.98254 0.86782,4.67678 0.86782,6.93479 v 14.45627 56.09032 c 0,5.91347 0.46371,12.03368 -0.0272,17.92576 -0.17093,2.05106 -1.68625,4.03792 -3.77134,4.51209 -5.90872,1.34327 -13.50574,0.11392 -19.57693,0.11392 h -41.19921 -12.5643 c -2.69432,0 -5.17094,0.0355 -6.69414,-2.60242 -1.07615,-1.86312 -0.61069,-4.58437 -0.61069,-6.64959 V 252.59608 197.084 c 0,-5.89612 -0.9616,-12.7059 0.0962,-18.50401 0.35414,-1.93929 2.04126,-3.57602 3.99457,-3.94937"
         id="path482" /></g></g><text
     xml:space="preserve"
     style="font-size:22.5067px;font-family:'Comic Sans MS';-inkscape-font-specification:'Comic Sans MS, Normal';text-align:center;letter-spacing:3.14011px;text-anchor:middle;fill:#cccccc;fill-opacity:0.996078;stroke:none;stroke-width:0.127597;stroke-linecap:round;stroke-dasharray:none;paint-order:stroke fill markers"
     x="193.68408"
     y="85.124016"
     id="text446"
     transform="scale(1.026008,0.97465127)"><tspan
       id="tspan444"
       style="font-style:normal;font-variant:normal;font-weight:bold;font-stretch:normal;font-size:22.5067px;font-family:'TT Rationalist Trl';-inkscape-font-specification:'TT Rationalist Trl, Bold';font-variant-ligatures:normal;font-variant-caps:normal;font-variant-numeric:normal;font-variant-east-asian:normal;fill:#cccccc;fill-opacity:0.996078;stroke:none;stroke-width:0.127597"
       x="195.25414"
       y="85.124016">FINANCIAL</tspan></text><text
     xml:space="preserve"
     style="font-size:22.5067px;font-family:'Comic Sans MS';-inkscape-font-specification:'Comic Sans MS, Normal';text-align:center;letter-spacing:2.01775px;text-anchor:middle;fill:#cccccc;fill-opacity:0.996078;stroke:none;stroke-width:0.127597;stroke-linecap:round;stroke-dasharray:none;paint-order:stroke fill markers"
     x="170.57091"
     y="111.63079"
     id="text450"
     transform="scale(1.026008,0.97465127)"><tspan
       id="tspan448"
       style="font-style:normal;font-variant:normal;font-weight:bold;font-stretch:normal;font-size:22.5067px;font-family:'TT Rationalist Trl';-inkscape-font-specification:'TT Rationalist Trl, Bold';font-variant-ligatures:normal;font-variant-caps:normal;font-variant-numeric:normal;font-variant-east-asian:normal;fill:#cccccc;fill-opacity:0.996078;stroke:none;stroke-width:0.127597"
       x="171.57977"
       y="111.63079">AGENCY</tspan></text><text
     xml:space="preserve"
     style="font-size:43.2573px;font-family:'Comic Sans MS';-inkscape-font-specification:'Comic Sans MS, Normal';text-align:center;letter-spacing:2.71695px;text-anchor:middle;fill:#ffffff;stroke:none;stroke-width:0.24524;stroke-linecap:round;stroke-dasharray:none;paint-order:stroke fill markers"
     x="194.02927"
     y="51.453293"
     id="text454"
     transform="scale(1.026008,0.97465127)"><tspan
       id="tspan452"
       style="font-style:normal;font-variant:normal;font-weight:bold;font-stretch:normal;font-size:43.2573px;font-family:'TT Rationalist Trl';-inkscape-font-specification:'TT Rationalist Trl, Bold';font-variant-ligatures:normal;font-variant-caps:normal;font-variant-numeric:normal;font-variant-east-asian:normal;fill:#ffffff;stroke:none;stroke-width:0.245241"
       x="195.38774"
       y="51.453293">REYES</tspan></text><path
     style="fill:#104998;fill-opacity:1;stroke:none;stroke-width:0.27707"
     d="m 35.942285,25.002193 c -1.201608,0.727074 -0.891044,2.428146 -0.738675,3.575247 0.355692,2.683096 0.599689,5.562698 0.670994,8.268387 0.0327,1.233648 -0.110856,2.854255 1.155366,3.575256 1.909379,1.087008 6.143979,0.283329 8.319081,0.283329 h 21.447353 c 2.079556,0 7.455328,0.946725 9.070835,-0.441809 1.3303,-1.143527 0.850655,-4.067779 1.035884,-5.621677 0.2362,-1.980836 1.628328,-7.996353 0.01697,-9.441941 -0.922512,-0.827672 -3.398149,-0.61986 -4.55158,-0.439331 -3.013765,0.471847 -1.767314,5.374457 -2.913777,7.370707 -0.99883,1.739127 -5.091928,1.362091 -6.836145,1.091707 -3.595913,-0.557287 -1.389897,-5.495998 -2.782302,-7.635581 -0.872104,-1.340023 -3.357207,-0.885535 -4.738468,-0.866527 -5.374371,0.07416 -0.558746,7.665076 -5.014781,8.480059 -1.645039,0.300698 -5.634517,0.614618 -6.756747,-0.826842 -1.43392,-1.842469 -0.02031,-6.485992 -2.464218,-7.488121 -0.806928,-0.330735 -1.900456,-0.167841 -2.75501,-0.166201 -0.695225,9.53e-4 -1.543373,-0.09256 -2.164806,0.283338"
     id="path456" /><path
     style="fill:#ffffff;fill-opacity:1;stroke:none;stroke-width:0.27707"
     d="m 43.344517,58.051337 h 16.990756 c 2.183452,0 5.522003,-0.612425 7.519388,0.363251 3.102351,1.515042 1.951999,7.008828 1.950884,9.834419 -5.62e-4,1.44614 0.09696,2.944376 -1.40495,3.700648 -2.21102,1.113756 -5.91919,0.433545 -8.343856,0.433545 H 40.280611 c -2.628827,0 -8.355277,-1.091698 -10.024843,1.406999 -0.942836,1.41086 -0.559576,3.599508 -0.559576,5.207703 v 11.575737 8.819622 c 0,1.399549 -0.144277,2.947129 0.945352,4.025599 1.936671,1.91606 10.58052,1.75041 11.95426,-0.74388 2.546122,-4.623687 -3.420713,-16.922352 4.926776,-17.326955 4.988308,-0.24171 10.046263,-0.01106 15.040996,-0.01106 1.988748,0 4.509789,-0.340935 6.068205,1.16529 2.501823,2.417678 1.172649,9.387652 1.173764,12.615358 8.29e-4,1.933427 0.02555,4.284127 2.232469,5.042887 1.407733,0.48398 3.258887,0.19376 4.730956,0.19376 1.324437,0 2.899573,0.22186 4.176938,-0.17998 2.710731,-0.85247 2.229418,-3.9465 2.229418,-6.159127 V 79.27349 54.468321 c 0,-2.276567 0.913599,-7.021517 -0.899119,-8.711016 -1.41943,-1.322674 -3.723765,-0.935439 -5.507237,-0.935439 H 63.399189 39.166454 c -2.383714,0 -7.022479,-0.879481 -8.731292,1.16447 -1.929988,2.307987 -0.73897,8.637424 -0.73897,11.513728 0,2.201879 -0.795776,6.297484 0.286341,8.252124 1.211085,2.18838 7.547243,1.119828 9.741009,1.118722 1.000499,-5.53e-4 2.179544,0.140559 2.943013,-0.638877 1.536958,-1.568511 0.677962,-6.130177 0.677962,-8.180744"
     id="path458" /><path
     style="fill:#104998;fill-opacity:1;stroke:none;stroke-width:0.27707"
     d="M 14.170756,8.328169 C 11.560031,8.9212043 9.3467708,11.111177 8.7473581,13.694542 7.4103857,19.458656 8.600012,26.792224 8.600012,32.711834 v 60.083607 16.261169 c 0,2.62575 -0.4445358,5.60788 0.887146,7.99249 3.360819,6.01801 15.504493,3.58324 21.395829,3.58324 h 46.794244 14.205393 c 2.279284,0 5.037622,0.41204 7.241979,-0.21746 2.444437,-0.69839 4.303667,-2.86941 4.866307,-5.2948 1.33698,-5.76417 0.14736,-13.09795 0.14736,-19.017278 V 34.641117 18.931186 c 0,-2.622564 0.34149,-5.456752 -1.29187,-7.716933 C 100.64373,8.1664095 97.517161,8.1822814 94.110928,8.1822814 H 81.298215 35.896662 21.412725 c -2.307682,0 -4.985259,-0.3666923 -7.241969,0.1458876 m 5.849287,7.389458 c 5.793007,-1.107217 12.756451,-0.09371 18.661981,-0.09371 h 38.716672 12.255635 c 2.413532,0 4.654914,-0.02431 6.136172,2.208923 1.253696,1.889885 0.827262,4.458208 0.827262,6.610689 V 38.22418 91.693086 c 0,5.637101 0.442038,11.471284 -0.02593,17.087994 -0.162941,1.9552 -1.607442,3.8492 -3.595084,4.30121 -5.632572,1.28049 -12.874541,0.1086 -18.66199,0.1086 H 35.06102 23.08392 c -2.568399,0 -4.929273,0.0338 -6.381285,-2.4808 -1.025856,-1.77604 -0.582149,-4.37012 -0.582149,-6.33882 V 90.039363 37.121673 c 0,-5.620561 -0.91666,-12.112082 0.0917,-17.639214 0.337589,-1.848656 1.94586,-3.408893 3.807881,-3.764794"
     id="path460" /></svg>
